<?xml version="1.0" encoding="iso-8859-1"?>
<!-- Generator: Adobe Illustrator 16.0.0, SVG Export Plug-In . SVG Version: 6.00 Build 0)  -->
<!DOCTYPE svg PUBLIC "-//W3C//DTD SVG 1.1//EN" "http://www.w3.org/Graphics/SVG/1.1/DTD/svg11.dtd">
<svg version="1.1" id="Capa_1" xmlns="http://www.w3.org/2000/svg" xmlns:xlink="http://www.w3.org/1999/xlink" x="0px" y="0px"
	 width="32px" height="32px" viewBox="0 0 32 32" style="enable-background:new 0 0 32 32;" xml:space="preserve">
<g>
	<path d="M31.464,13.777c-0.283,0-0.516,0.23-0.516,0.516c0,0.192,0.11,0.354,0.266,0.441c-1.408,3.606-8.87,5.934-10.729,6.466
		c2.63-1.846,4.801-4.06,5.581-5.433c0.394-0.691,0.565-2.415,0.767-4.408c0.217-2.153,0.458-4.551,1.026-5.834
		c0.046,0.013,0.089,0.027,0.138,0.027c0.284,0,0.517-0.229,0.517-0.515s-0.231-0.516-0.517-0.516s-0.515,0.23-0.515,0.516
		c0,0.133,0.054,0.251,0.136,0.342c-0.6,1.335-0.845,3.767-1.063,5.951c-0.189,1.88-0.368,3.656-0.732,4.299
		c-0.856,1.507-3.438,4.055-6.454,5.979c-0.127-0.069-0.267-0.114-0.416-0.131c1.185-1.449,6.529-8.629,3.054-16.375
		C18.113-3.573,11.081,1.164,10.938,2.43C7.046-0.478,2.217,0.694,0.293,6.087c-1.922,5.393,6.94,11.63,6.003,11.301
		c-2.251-0.235-3.376,2.298-2.766,3.939c-3.188,2.906,1.348,4.231,2.204,4.624c0.629,0.286,3.776,0.211,5.401,0.148
		C8.029,28.954,8.753,31.12,8.852,32c0.404-5.224,4.783-5.926,6.683-7.017c1.309-0.752,2.004-1.544,2.319-1.969
		c0.173,0.372,0.548,0.632,0.985,0.632c0.604,0,1.091-0.486,1.091-1.09c0-0.273-0.104-0.521-0.271-0.714l0.508-0.267
		c0.406-0.104,9.706-2.521,11.321-6.773c0.273-0.013,0.493-0.234,0.493-0.511C31.98,14.008,31.749,13.777,31.464,13.777z"/>
</g>
<g>
</g>
<g>
</g>
<g>
</g>
<g>
</g>
<g>
</g>
<g>
</g>
<g>
</g>
<g>
</g>
<g>
</g>
<g>
</g>
<g>
</g>
<g>
</g>
<g>
</g>
<g>
</g>
<g>
</g>
</svg>
