<?xml version="1.0" encoding="iso-8859-1"?>
<!-- Generator: Adobe Illustrator 16.0.0, SVG Export Plug-In . SVG Version: 6.00 Build 0)  -->
<!DOCTYPE svg PUBLIC "-//W3C//DTD SVG 1.1//EN" "http://www.w3.org/Graphics/SVG/1.1/DTD/svg11.dtd">
<svg version="1.1" id="Capa_1" xmlns="http://www.w3.org/2000/svg" xmlns:xlink="http://www.w3.org/1999/xlink" x="0px" y="0px"
	 width="31.999px" height="31.998px" viewBox="0 0 31.999 31.998" style="enable-background:new 0 0 31.999 31.998;"
	 xml:space="preserve">
<g>
	<path d="M26.288,28.762c-0.236-0.161-1.127-1.158-0.334-1.812c6.367-4.946-0.58-10.08-0.58-10.08s0.229-0.188,0.484-0.398
		c0.254-0.127,2.893-0.747,1.592-2.258c-1.3-1.511-2.031,1.587-1.955,1.764c-0.125,0.106-0.479,0.389-0.479,0.389
		s-3.33-2.078-5.801-0.147c-2.471,1.93-8.055,2.783-8.055,2.783s4.1-3.082,4.277-3.923c0.177-0.841,5.833-9.26-3.242-11.767
		c-2.621-5.09-4.486-3.903-7.422,0.771c-2.41,3.839,0.556,14.973,1.695,18.835c-0.472-0.611-0.865-1.049-1.072-1.128
		c0.055-0.271-0.507-1.065-1.242-0.761c-0.013,0.005-0.021,0.012-0.034,0.017c-0.163-0.417-0.384-1.068-0.379-1.553
		c0.07-0.028,0.136-0.096,0.166-0.19c0.047-0.146-0.002-0.291-0.108-0.325s-0.23,0.056-0.277,0.2c-0.04,0.125-0.008,0.246,0.07,0.3
		c-0.008,0.531,0.225,1.219,0.395,1.646c-0.006,0.004-0.012,0.008-0.017,0.012c-0.362-0.329-0.989-0.83-1.613-1.017
		c-0.007-0.107-0.126-0.193-0.272-0.193c-0.154,0-0.278,0.092-0.278,0.203s0.124,0.203,0.276,0.203c0.086,0,0.16-0.031,0.211-0.077
		c0.586,0.17,1.199,0.66,1.559,0.981c-0.414,0.437-0.295,1.242,0.554,1.518c-0.33,1.421,1.497,2.359,2.157,3.4
		c0.519,0.818,2.173,3.388,3.173,3.917c0.862,0.47,0.768-0.47,0.771-0.537c0.021-0.411-0.204-0.869-0.52-1.336
		c0.034,0.021-0.367-0.641-0.947-1.545c1.853,1.163,10.058,9.017,14.879,2.896c0.578-0.707,1.582-0.538,1.812-0.331
		c0.229,0.207,2.336,4.433,4.09,2.057C31.575,28.9,26.525,28.921,26.288,28.762z M5.481,5.646C6.42,4.815,6.747,6.692,6.747,6.692
		s1.109-3.867,3.43-1.256c1.785-0.367,2.732,1.984,2.161,2.628c1.94,0.316,2.521,2.854,2.9,3.527
		c2.385,3.254-4.429,6.598-5.176,7.734c-0.746,1.135-0.825,5.199-1.839,5.164C6.232,22.418,4.541,6.478,5.481,5.646z M20.63,27.733
		c1.495,2.524-1.386,3.197-2.556,3.377c-4-1.231-8.718-5.235-8.718-5.235l-0.739-0.899c0,0,0.986-1.115,1.262-2.139
		c0.276-1.024-0.069-2.963,1.191-3.414c1.26-0.451,2.05,3.11,6-0.529c3.948-3.639,8.321,0.112,3.543,3.462
		C24.165,23.276,23.782,26.983,20.63,27.733z"/>
</g>
<g>
</g>
<g>
</g>
<g>
</g>
<g>
</g>
<g>
</g>
<g>
</g>
<g>
</g>
<g>
</g>
<g>
</g>
<g>
</g>
<g>
</g>
<g>
</g>
<g>
</g>
<g>
</g>
<g>
</g>
</svg>
