<?xml version="1.0" encoding="iso-8859-1"?>
<!-- Generator: Adobe Illustrator 19.0.0, SVG Export Plug-In . SVG Version: 6.00 Build 0)  -->
<svg version="1.1" id="Layer_1" xmlns="http://www.w3.org/2000/svg" xmlns:xlink="http://www.w3.org/1999/xlink" x="0px" y="0px"
	 viewBox="0 0 511.999 511.999" style="enable-background:new 0 0 511.999 511.999;" xml:space="preserve">
<g>
	<g>
		<path d="M469.778,74.877c-44.669,0-93.032,24.261-143.745,72.109c-20.529,19.369-37.06,38.564-47.942,52.144
			c5.725-18.172,16.519-44.777,35.476-68.473c2.765-3.457,2.205-8.502-1.252-11.268s-8.503-2.205-11.268,1.252
			c-28.194,35.244-39.506,75.517-43.056,91.14c-0.657-0.051-1.32-0.087-1.991-0.087c-0.671,0-1.333,0.034-1.991,0.087
			c-3.55-15.622-14.862-55.897-43.056-91.14c-2.766-3.458-7.813-4.019-11.268-1.252c-3.457,2.765-4.018,7.81-1.252,11.268
			c18.892,23.615,29.696,50.232,35.441,68.431c-10.882-13.578-27.4-32.752-47.908-52.101C135.254,99.137,86.89,74.877,42.221,74.877
			C21.831,74.877,0,88.407,0,108.547c0,13.866,4.492,49.484,14.133,81.902c13.006,43.732,30.644,67.745,52.424,71.375
			c5.272,0.879,10.843,1.256,16.634,1.256c0.323,0,0.652-0.01,0.977-0.012c-3.579,2.331-7.161,4.87-10.663,7.643
			c-26.078,20.638-39.3,46.636-39.3,77.268c0,31.432,12.106,57.468,34.088,73.312c14.426,10.397,32.409,15.831,50.628,15.831
			c9.579,0,19.225-1.503,28.45-4.578c43.26-14.42,84.657-92.886,100.613-126.323v67.41c0,4.427,3.589,8.017,8.017,8.017
			s8.017-3.589,8.017-8.017v-67.41c15.955,33.437,57.353,111.902,100.613,126.323c9.226,3.075,18.868,4.578,28.45,4.578
			c18.217,0,36.205-5.435,50.628-15.831c21.982-15.844,34.088-41.88,34.088-73.312c0-30.632-13.222-56.63-39.3-77.269
			c-3.503-2.773-7.084-5.311-10.663-7.643c0.325,0.002,0.653,0.012,0.977,0.012c5.789,0.001,11.363-0.376,16.634-1.255
			c15.434-2.572,28.785-15.393,39.885-38.201c0.01-0.018,0.017-0.037,0.027-0.056c4.554-9.366,8.73-20.402,12.511-33.119
			c9.641-32.417,14.133-68.036,14.133-81.902C511.999,88.407,490.168,74.877,469.778,74.877z M469.78,90.911
			c9.072-0.001,18.926,4.064,23.532,10.218c-18.476,1.797-61.214,9.005-107.586,37.854c-2.642-1.424-5.529-2.634-8.695-3.507
			c-3.598-0.993-7.304-1.499-11.107-1.53C396.939,110.027,433.174,90.911,469.78,90.911z M329.381,166.146
			c16.9-13.314,31.459-18.448,43.268-15.247c9.263,2.512,15.254,9.88,18.438,15.031c-31.83,10.349-70.265,30.476-110.06,68.824
			c-0.277-3.396-1.231-6.602-2.73-9.484C283.509,218.085,302.411,192.85,329.381,166.146z M419.567,316.722
			c2.895,7.319,4.47,18.275,4.11,28.592c-0.01,0.265-0.026,0.523-0.037,0.786c-21.318-10.954-31.961-26.743-42.278-42.058
			c-16.96-25.177-34.463-51.147-94.497-50.241c19.504-9.896,51.857-3.946,83.294,1.844c2.758,0.507,9.604,1.997,9.604,1.997
			c8.491,3.103,24.871,9.092,40.955,19.933c-0.9,1.038-1.762,2.204-2.535,3.552C413.196,289.817,413.662,301.793,419.567,316.722z
			 M375.026,323.127c-24.824-6.589-65.854-20.756-94.353-47.413c0.29-1.522,0.447-3.09,0.447-4.696v-1.014
			c56.199-2.627,69.854,17.625,86.946,42.995C370.298,316.314,372.587,319.711,375.026,323.127z M182.468,166.031
			c27.043,26.747,46.009,52.044,51.233,59.241c-1.497,2.882-2.452,6.087-2.729,9.483c-39.794-38.347-78.229-58.475-110.058-68.824
			c3.174-5.124,9.138-12.465,18.323-15.001C151.035,147.675,165.578,152.763,182.468,166.031z M93.817,281.126
			c-0.774-1.349-1.635-2.514-2.535-3.552c16.085-10.841,32.464-16.831,40.955-19.933c0.001,0,6.847-1.49,9.605-1.998
			c31.436-5.79,63.79-11.74,83.295-1.843c-60.034-0.902-77.539,25.063-94.499,50.241c-10.317,15.316-20.96,31.105-42.278,42.058
			c-0.012-0.263-0.028-0.521-0.037-0.786c-0.36-10.317,1.215-21.272,4.11-28.592C98.337,301.793,98.803,289.817,93.817,281.126z
			 M143.935,312.999c17.091-25.371,30.745-45.628,86.946-42.996v1.015c0,1.606,0.157,3.174,0.447,4.696
			c-28.446,26.604-69.497,40.789-94.341,47.395C139.421,319.699,141.706,316.307,143.935,312.999z M42.221,90.91
			c36.568,0,72.795,19.117,103.814,43.036c-3.788,0.034-7.48,0.54-11.065,1.53c-3.166,0.874-6.053,2.084-8.695,3.507
			c-46.372-28.849-89.11-36.057-107.586-37.854C23.294,94.975,33.148,90.91,42.221,90.91z M16.429,117.061
			c15.727,1.53,54.468,7.724,96.598,32.634c-3.789,4.326-6.392,8.656-7.973,11.702c-7.76-1.907-15.007-3.244-21.622-4.145
			c-28.473-3.875-49.989-0.762-60.715,1.579C19.301,142.54,17.237,127.437,16.429,117.061z M38,209.818
			c-3.006-7.044-5.852-15.039-8.499-23.94c-1.126-3.785-2.176-7.608-3.155-11.429c9.303-2.011,28.816-4.862,54.925-1.308
			c17.418,2.371,39.495,7.95,64.247,20.025C96.817,193.006,54.355,204.667,38,209.818z M69.193,246.008
			c-8.368-1.395-16.511-8.835-23.961-21.6c20.851-6.269,75.61-20.21,131.218-13.309c0.029,0.003,0.057,0.003,0.086,0.006
			c9.243,6.201,18.711,13.341,28.326,21.573c-20.084-1.247-43.222,3.014-65.925,7.197c-2.882,0.531-8.752,1.601-8.795,1.609
			C108.099,245.462,86.079,248.823,69.193,246.008z M163.727,403.907c-7.178,6.352-14.388,11.081-21.427,13.427
			c-21.965,7.321-46.73,3.853-64.633-9.05c-12.512-9.019-27.429-26.802-27.429-60.305c0-23.503,9.513-43.841,28.28-60.544
			c0.491,0.423,0.984,0.959,1.394,1.672c1.371,2.39,2.885,8.391-2.388,21.719c-3.71,9.378-5.663,22.481-5.225,35.048
			c0.37,10.609,2.592,25.337,11.077,35.258c5.038,5.889,14.159,12.209,29.013,8.874c33.57-7.543,45.003-0.785,48.36,2.47
			C163.595,395.236,164.589,399.085,163.727,403.907z M177.804,389.444c-1.366-3.145-3.339-6.002-5.896-8.48
			c-11.537-11.186-32.745-13.406-63.035-6.603c-7.575,1.704-11.094-1.057-13.313-3.651c-1.74-2.034-3.207-4.82-4.362-8.168
			c11.771-5.395,20.913-11.961,28.418-19.042c11.277-1.982,73.78-14.339,117.226-51.237
			C225.485,317.136,202.727,360.469,177.804,389.444z M265.086,271.018c0,5.01-4.076,9.086-9.086,9.086s-9.086-4.076-9.086-9.086
			v-34.205c0-5.01,4.076-9.086,9.086-9.086s9.086,4.076,9.086,9.086V271.018z M334.196,389.444
			c-24.923-28.976-47.681-72.308-59.037-97.182c43.445,36.898,105.949,49.257,117.226,51.237
			c7.504,7.081,16.646,13.648,28.418,19.042c-1.155,3.349-2.622,6.133-4.362,8.168c-2.218,2.594-5.735,5.355-13.313,3.651
			c-30.29-6.804-51.497-4.582-63.035,6.603C337.535,383.444,335.562,386.301,334.196,389.444z M428.624,381.132
			c8.485-9.921,10.707-24.65,11.077-35.258c0.439-12.567-1.515-25.669-5.225-35.048c-5.178-13.089-3.787-19.102-2.497-21.522
			c0.434-0.815,0.968-1.41,1.502-1.87c18.768,16.705,28.281,37.042,28.281,60.545c0,33.502-14.916,51.286-27.43,60.305
			c-17.903,12.905-42.668,16.371-64.633,9.05c-7.039-2.346-14.249-7.075-21.426-13.427c-0.862-4.822,0.131-8.671,2.978-11.431
			c3.357-3.255,14.788-10.013,48.36-2.47C414.467,393.343,423.588,387.021,428.624,381.132z M442.807,246.008
			c-16.883,2.812-38.896-0.545-60.932-4.521c-0.05-0.009-5.932-1.081-8.812-1.611c-22.703-4.184-45.842-8.445-65.925-7.197
			c9.619-8.235,19.088-15.374,28.331-21.572c0.027-0.003,0.053-0.002,0.08-0.006c55.606-6.9,110.367,7.04,131.218,13.309
			C459.319,237.174,451.176,244.614,442.807,246.008z M482.5,185.878c-2.648,8.901-5.493,16.896-8.499,23.941
			c-16.356-5.152-58.822-16.812-107.526-16.652c24.381-11.896,46.125-17.467,63.309-19.894c26.389-3.728,46.385-0.829,55.866,1.197
			C484.672,178.283,483.623,182.1,482.5,185.878z M489.282,158.833c-10.727-2.342-32.242-5.455-60.715-1.579
			c-6.614,0.901-13.86,2.237-21.622,4.145c-1.58-3.047-4.184-7.376-7.973-11.702c42.129-24.909,80.871-31.105,96.598-32.634
			C494.762,127.437,492.698,142.54,489.282,158.833z"/>
	</g>
</g>
<g>
</g>
<g>
</g>
<g>
</g>
<g>
</g>
<g>
</g>
<g>
</g>
<g>
</g>
<g>
</g>
<g>
</g>
<g>
</g>
<g>
</g>
<g>
</g>
<g>
</g>
<g>
</g>
<g>
</g>
</svg>
