<svg id="Capa_1" enable-background="new 0 0 512 512" height="512" viewBox="0 0 512 512" width="512" xmlns="http://www.w3.org/2000/svg"><g><path d="m88.177 380.318c0 18.028 14.667 32.695 32.695 32.695s32.695-14.667 32.695-32.695-14.667-32.695-32.695-32.695-32.695 14.666-32.695 32.695zm50.391 0c0 9.758-7.938 17.695-17.695 17.695s-17.695-7.938-17.695-17.695 7.938-17.695 17.695-17.695 17.695 7.938 17.695 17.695z"/><path d="m490.489 93.98c-13.441-8.821-30.251-10.276-44.964-3.894-88.282 38.294-140.779 75.579-160.963 91.333-2.566-5.456-6.65-10.058-11.705-13.266 23.308-64.985 66.808-94.926 67.471-95.375 3.441-2.299 4.37-6.952 2.073-10.396-2.298-3.447-6.955-4.378-10.4-2.081-2.004 1.336-48.314 32.849-73.365 103.069-.87-.072-1.747-.119-2.636-.119s-1.766.046-2.636.119c-25.051-70.22-71.361-101.732-73.365-103.069-3.442-2.295-8.087-1.365-10.388 2.073s-1.377 8.094 2.056 10.4c.45.302 44.109 30.23 67.476 95.378-5.054 3.209-9.138 7.811-11.705 13.266-20.184-15.754-72.681-53.039-160.963-91.333-14.714-6.383-31.523-4.927-44.964 3.894-13.469 8.841-21.511 23.72-21.511 39.803v70.286c0 31.466 14.034 60.857 38.504 80.639 16.713 13.512 36.789 21.303 57.641 22.797l-20.964 17.033c-12.721 10.335-21.629 24.851-25.084 40.874-3.456 16.022-1.321 32.919 6.009 47.579 12.226 24.451 36.802 39.766 64.139 39.967.182.001.363.002.544.002 27.121 0 51.676-14.914 64.176-39.022l29.595-57.077c1.907-3.677.471-8.204-3.206-10.11-3.677-1.907-8.204-.471-10.11 3.206l-29.595 57.077c-10.055 19.391-29.035 30.926-50.839 30.926-.151 0-.303 0-.455-.001-21.994-.162-40.998-12.003-50.834-31.676-12.104-24.208-5.887-53.035 15.119-70.103l36.886-29.97c1.3-.228 2.598-.471 3.895-.749l99.031-21.221v38.819c0 14.812 10.262 27.265 24.048 30.641v73.569c0 4.142 3.358 7.5 7.5 7.5s7.5-3.358 7.5-7.5v-73.569c10.206-2.499 18.479-9.971 22.088-19.696l41.447 79.934c12.501 24.109 37.053 39.022 64.176 39.022.18 0 .364-.001.544-.002 27.337-.201 51.914-15.516 64.14-39.968 7.33-14.66 9.464-31.557 6.008-47.579s-12.364-30.538-25.084-40.874l-20.964-17.034c20.851-1.495 40.929-9.286 57.641-22.796 24.47-19.781 38.504-49.172 38.504-80.638v-70.286c0-16.083-8.042-30.962-21.511-39.802zm-202.941 174.918v-17.541l95.58-12.708-40.071 42.144zm-272.548-64.83v-70.286c0-11.013 5.511-21.204 14.741-27.261 9.338-6.129 20.552-7.104 30.766-2.673 98.092 42.549 152.073 84.652 163.945 94.437v37.942l-112.05-14.898-57.418-60.389c2.335-2.608 5.126-4.844 8.302-6.572 8.911-4.847 19.624-5.053 28.656-.554 52.706 26.251 86.911 49.969 102.608 61.77 3.312 2.489 8.012 1.822 10.502-1.488 2.489-3.311 1.823-8.013-1.488-10.502-16.108-12.109-51.159-36.422-104.935-63.206-13.413-6.681-29.304-6.38-42.511.804-14.837 8.07-24.055 23.576-24.055 40.466v74.755c-11.004-15.018-17.063-33.232-17.063-52.345zm107.278 86.725c-26.318 5.639-53.415-.831-74.344-17.75-.294-.238-.579-.483-.87-.724v-90.663c0-2.227.245-4.415.702-6.539l103.983 109.361zm46.665-10-40.071-42.144 95.58 12.708v17.541zm87.057 58.814c-9.125 0-16.548-7.424-16.548-16.549v-128.258c0-9.125 7.423-16.548 16.548-16.548s16.548 7.423 16.548 16.548v128.258c0 9.125-7.423 16.549-16.548 16.549zm186.479 66.675c-9.836 19.672-28.839 31.514-50.833 31.675-21.968.18-41.169-11.399-51.294-30.925l-52.803-101.835v-20.958l99.031 21.221c1.297.278 2.596.521 3.895.75l36.885 29.969c21.006 17.067 27.223 45.895 15.119 70.103zm-52.757-115.489-29.471-6.315 103.983-109.361c.457 2.125.702 4.312.702 6.539v90.663c-.29.241-.576.486-.87.724-20.929 16.919-48.026 23.39-74.344 17.75zm107.278-86.725c0 19.113-6.059 37.328-17.064 52.343v-74.755c0-16.89-9.217-32.396-24.055-40.466-13.206-7.183-29.099-7.483-42.511-.803-53.775 26.784-88.827 51.097-104.935 63.206-3.311 2.489-3.977 7.191-1.488 10.502s7.189 3.978 10.502 1.488c15.698-11.801 49.902-35.518 102.608-61.77 9.034-4.499 19.746-4.293 28.656.554 3.177 1.728 5.968 3.964 8.302 6.572l-57.418 60.389-112.05 14.898v-37.942c11.872-9.784 65.853-51.887 163.945-94.437 10.214-4.43 21.427-3.456 30.766 2.673 9.23 6.057 14.741 16.248 14.741 27.261v70.287z"/><path d="m358.432 380.318c0 18.028 14.667 32.695 32.695 32.695s32.695-14.667 32.695-32.695-14.667-32.695-32.695-32.695-32.695 14.666-32.695 32.695zm50.391 0c0 9.758-7.938 17.695-17.695 17.695s-17.695-7.938-17.695-17.695 7.938-17.695 17.695-17.695 17.695 7.938 17.695 17.695z"/></g></svg>