<?xml version="1.0" encoding="iso-8859-1"?>
<!-- Generator: Adobe Illustrator 19.0.0, SVG Export Plug-In . SVG Version: 6.00 Build 0)  -->
<svg version="1.1" id="Capa_1" xmlns="http://www.w3.org/2000/svg" xmlns:xlink="http://www.w3.org/1999/xlink" x="0px" y="0px"
	 viewBox="0 0 512 512" style="enable-background:new 0 0 512 512;" xml:space="preserve">
<g>
	<g>
		<path d="M506.374,71.481c-6.325-7.885-17.352-11.718-33.709-11.718c-67.614,0-120.147,44.767-152.31,82.321
			c-19.375,22.622-32.962,44.318-40.949,58.536c-0.336,0.599-0.857,1.535-1.5,2.711c-1.288-3.408-3.345-6.44-5.958-8.886
			c1.885-7.09,7.063-25.822,13.859-44.363c15.357-41.903,24.128-42.981,24.202-42.981c0.013,0.002,1.396,0.413,3.583,4.093
			c2.115,3.563,6.717,4.735,10.278,2.619c3.562-2.115,4.734-6.717,2.619-10.278c-6.32-10.643-13.64-12.003-18.669-11.272
			c-15.922,2.318-27.915,30.076-36.584,53.999c-6.159,16.996-10.881,33.578-13.143,41.931c-0.729-0.068-1.466-0.107-2.212-0.107
			c-0.746,0-1.484,0.039-2.212,0.107c-2.262-8.354-6.984-24.936-13.143-41.931c-8.669-23.923-20.662-51.68-36.584-53.999
			c-5.03-0.733-12.349,0.629-18.669,11.272c-2.115,3.561-0.943,8.163,2.619,10.278c3.562,2.116,8.164,0.943,10.278-2.619
			c2.186-3.68,3.569-4.09,3.572-4.092c0.092,0,8.849,1.095,24.177,42.884c6.805,18.551,12.003,37.352,13.894,44.459
			c-2.547,2.384-4.563,5.324-5.855,8.627c-0.579-1.057-1.046-1.896-1.358-2.451c-7.987-14.218-21.574-35.915-40.949-58.536
			c-32.163-37.554-84.696-82.321-152.31-82.321c-16.358,0-27.384,3.833-33.709,11.718C-0.003,78.499-0.001,86.726,0,91.145v0.179
			c0,10.32,6.5,21.779,14.028,35.048c12.858,22.667,28.861,50.877,18.193,82.881c-2.456,7.367-1.328,14.493,3.26,20.608
			c6.926,9.229,22.301,16.25,46.531,21.176c-43.007,38.712-50.059,93.74-16.48,141.351c17.606,24.965,38.384,42.332,61.755,51.62
			c13.866,5.511,28.51,8.229,44.47,8.229c4.18,0,8.452-0.187,12.821-0.559c9.474-0.806,19.23-7.857,29.826-21.556
			c7.576-9.794,15.682-23.137,24.091-39.658c3.686-7.241,7.092-14.421,10.127-21.11v26.73c0,4.143,3.358,7.5,7.5,7.5
			c4.142,0,7.5-3.357,7.5-7.5v-26.191c2.973,6.534,6.296,13.525,9.883,20.571c8.41,16.521,16.515,29.864,24.091,39.658
			c10.596,13.698,20.353,20.75,29.827,21.556c4.37,0.372,8.64,0.559,12.82,0.559c15.959,0,30.606-2.72,44.471-8.229
			c23.371-9.288,44.148-26.655,61.755-51.62c33.579-47.612,26.527-102.639-16.48-141.351c24.23-4.926,39.605-11.947,46.531-21.176
			c4.588-6.115,5.716-13.242,3.26-20.608c-10.668-32.004,5.334-60.214,18.193-82.881C505.5,113.103,512,101.644,512,91.324v-0.179
			C512.001,86.726,512.003,78.499,506.374,71.481z M255.878,203.085c4.709,0,8.54,3.831,8.54,8.54c0,4.709-3.831,8.54-8.54,8.54
			c-4.709,0-8.54-3.831-8.54-8.54C247.338,206.916,251.169,203.085,255.878,203.085z M47.479,220.858
			c-1.63-2.173-1.928-4.161-1.028-6.862c8.498-25.492,3.125-48.514-5.417-68.116c0.686-2.393,6.72-20.46,34.22-29.726
			c3.617-1.219,6.013-4.841,5.292-8.589c-0.876-4.555-5.494-7.15-9.744-5.739c-20.706,6.894-32.008,18.305-38.032,27.339
			c-1.93-3.553-3.858-6.958-5.695-10.196C20.865,108.024,15,97.685,15,91.324v-0.182c-0.001-3.455-0.001-7.371,2.327-10.274
			c3.203-3.993,10.813-6.104,22.009-6.104c27.866,0,53.088,8.514,75.114,21.029c-3.669-0.037-7.252,0.021-10.718,0.2
			c-4.104,0.212-7.5,3.592-7.39,7.7c0.114,4.236,3.686,7.526,7.9,7.294c10.697-0.574,22.593-0.003,35.36,1.681
			c15.22,11.816,28.32,24.98,39.03,37.296c34.098,39.209,52.806,79.444,53.957,86.04c0.143,0.821,0.149,2.928-0.225,3.725
			c-0.681,1.45-1.324,2.967-1.925,4.548c-7.429,0.239-44.819,1.261-84.136-0.949C120.573,241.881,59.439,236.798,47.479,220.858z
			 M226.322,259.398c-0.994,5.495-1.589,11.401-1.726,17.613l-27.605,32.698l-73.28,4.84l92.404-54.95
			C220.219,259.539,223.671,259.465,226.322,259.398z M101.686,254.314c12.823,1.742,27.425,3.074,43.879,3.996
			c14.418,0.808,28.569,1.188,41.13,1.333L90.697,316.73l-30.678,2.026C63.281,294.87,77.385,272.306,101.686,254.314z
			 M225.073,383.769c-7.977,15.659-15.568,28.182-22.564,37.217c-10.178,13.146-16.4,15.51-19.203,15.749
			c-23.52,2.001-44.449-2.225-63.116-12.807l10.663-12.629c2.672-3.165,2.273-7.897-0.892-10.569
			c-3.166-2.672-7.896-2.273-10.569,0.892l-11.78,13.952c-10.727-8.232-20.647-18.819-29.823-31.828
			c-11.453-16.239-17.511-33.228-18.393-49.915l124.154-8.201l-43.324,51.314c-2.672,3.164-2.273,7.896,0.892,10.568
			c1.408,1.189,3.125,1.77,4.834,1.77c2.132,0,4.251-0.904,5.734-2.662l74.354-88.067c3.018,18.408,10.445,32.425,20.194,38.104
			C242.276,346.589,234.53,365.203,225.073,383.769z M256.122,324.426c-3.139,0-7.144-4.283-10.203-10.912
			c-4.04-8.753-6.357-21.043-6.357-33.719c0-12.676,2.317-24.966,6.357-33.719c3.059-6.628,7.064-10.912,10.203-10.912
			c3.139,0,7.144,4.283,10.203,10.912c4.04,8.753,6.357,21.043,6.357,33.719c0,12.676-2.317,24.966-6.357,33.719
			C263.266,320.143,259.261,324.426,256.122,324.426z M434.21,383.744c-9.175,13.009-19.096,23.596-29.823,31.827l-11.779-13.951
			c-2.671-3.163-7.403-3.563-10.569-0.892c-3.165,2.672-3.564,7.404-0.892,10.569l10.662,12.629
			c-18.667,10.582-39.596,14.807-63.115,12.808c-2.803-0.239-9.025-2.603-19.204-15.749c-6.996-9.035-14.587-21.558-22.564-37.217
			c-9.42-18.493-17.141-37.031-21.114-46.992c9.803-5.579,17.285-19.571,20.349-37.984l74.151,87.827
			c1.483,1.758,3.602,2.662,5.734,2.662c1.708,0,3.427-0.581,4.834-1.77c3.165-2.672,3.564-7.404,0.892-10.568l-43.324-51.314
			l124.154,8.201C451.721,350.516,445.664,367.505,434.21,383.744z M285.922,259.405c2.617,0.065,5.985,0.136,9.963,0.194
			l92.404,54.95l-73.28-4.84l-27.358-32.404C287.526,270.988,286.931,264.984,285.922,259.405z M451.981,318.756l-30.678-2.026
			l-95.998-57.087c12.562-0.146,26.714-0.526,41.13-1.333c16.454-0.922,31.055-2.254,43.879-3.996
			C434.615,272.306,448.719,294.87,451.981,318.756z M497.001,91.324L497.001,91.324c-0.001,6.361-5.866,16.701-12.076,27.646
			c-1.837,3.238-3.765,6.643-5.695,10.196c-6.004-9.004-17.25-20.368-37.822-27.269c-3.621-1.215-7.722,0.361-9.35,3.816
			c-1.956,4.15,0.183,8.941,4.402,10.346c27.468,9.145,33.707,27.12,34.503,29.829c-8.54,19.6-13.91,42.62-5.414,68.108
			c0.9,2.701,0.603,4.689-1.028,6.862c-11.959,15.94-73.094,21.023-98.823,22.469c-38.892,2.185-75.901,1.21-83.889,0.957
			c-0.649-1.707-1.345-3.339-2.087-4.893c-0.401-0.841-0.311-3.388-0.311-3.388c1.067-6.29,19.859-46.831,53.957-86.04
			c10.709-12.315,23.81-25.479,39.03-37.296c12.648-1.667,24.442-2.244,35.059-1.696c4.088,0.211,7.817-2.733,8.175-6.811
			c0.373-4.247-2.846-7.925-7.069-8.151c-3.557-0.191-7.24-0.253-11.013-0.215c22.025-12.515,47.248-21.029,75.115-21.029
			c11.195,0,18.806,2.111,22.009,6.104c2.329,2.903,2.328,6.819,2.327,10.274V91.324z"/>
	</g>
</g>
<g>
</g>
<g>
</g>
<g>
</g>
<g>
</g>
<g>
</g>
<g>
</g>
<g>
</g>
<g>
</g>
<g>
</g>
<g>
</g>
<g>
</g>
<g>
</g>
<g>
</g>
<g>
</g>
<g>
</g>
</svg>
