<?xml version="1.0" encoding="iso-8859-1"?>
<!-- Generator: Adobe Illustrator 19.0.0, SVG Export Plug-In . SVG Version: 6.00 Build 0)  -->
<svg version="1.1" id="Capa_1" xmlns="http://www.w3.org/2000/svg" xmlns:xlink="http://www.w3.org/1999/xlink" x="0px" y="0px"
	 viewBox="0 0 512 512" style="enable-background:new 0 0 512 512;" xml:space="preserve">
<g>
	<g>
		<path d="M500.794,41.565c-7.117-6.429-16.671-9.564-26.208-8.585c-48.289,4.918-92.53,23.021-131.492,53.809
			c-22.542,17.811-43.523,40.256-61.434,65.619c1.87-7.689,5.226-18.682,11.033-30.573C307,92.541,329.502,71.678,357.768,61.503
			c5.196-1.871,7.892-7.601,6.021-12.797c-1.872-5.195-7.597-7.892-12.797-6.021c-33.261,11.975-59.634,36.31-76.27,70.373
			c-8.325,17.046-12.22,32.462-13.913,41.032c-1.577-0.189-3.182-0.286-4.809-0.286c-1.627,0-3.232,0.098-4.809,0.286
			c-1.693-8.569-5.589-23.986-13.913-41.032c-16.636-34.063-43.009-58.398-76.27-70.373c-5.197-1.868-10.926,0.826-12.797,6.021
			c-1.87,5.196,0.825,10.926,6.021,12.797c28.266,10.176,50.768,31.038,65.074,60.332c5.807,11.892,9.164,22.884,11.034,30.574
			c-17.911-25.363-38.892-47.809-61.434-65.619C129.943,56.002,85.703,37.898,37.414,32.98c-9.533-0.979-19.091,2.156-26.208,8.585
			C4.085,47.998,0,57.191,0,66.789c0,4.903,1.03,9.649,3.063,14.1c2.028,4.446,4.933,8.333,8.643,11.562l6.439,5.589
			c1.986,1.725,3.126,4.222,3.126,6.85v82.41c0,44.807,30.925,82.527,72.551,92.939c-23.044,15.124-44.245,33.834-49.163,53.517
			c-5.632,22.553-0.646,44.747,14.419,64.182c7.489,9.661,15.74,16.351,20.436,19.753c4.492,19.51,19.148,46.024,45.81,56.908
			c6.297,2.57,14.257,4.598,23.708,4.598c13.185,0,29.269-3.948,47.759-15.873c1.497-0.966,2.708-2.314,3.51-3.903
			c4.74-9.404,8.14-13.032,10.157-14.42c1.416-0.974,2.384-1.053,5.229-1.158c5.092-0.188,13.612-0.502,21.314-11.283
			c2.535-3.551,5.375-8.767,8.281-15.159c3.36,1.167,6.967,1.802,10.719,1.802s7.359-0.635,10.72-1.802
			c2.905,6.392,5.747,11.609,8.283,15.161c7.699,10.778,16.22,11.093,21.311,11.28c2.846,0.105,3.814,0.185,5.229,1.158
			c2.017,1.388,5.417,5.016,10.157,14.42c0.802,1.59,2.013,2.938,3.51,3.903c18.492,11.926,34.573,15.873,47.759,15.873
			c9.449,0,17.412-2.027,23.708-4.598c26.662-10.885,41.319-37.398,45.811-56.908c4.696-3.402,12.947-10.092,20.436-19.753
			c15.064-19.435,20.051-41.629,14.419-64.183c-4.918-19.683-26.119-38.393-49.163-53.517
			c41.627-10.412,72.552-48.133,72.552-92.939v-82.41c0-2.628,1.14-5.125,3.124-6.849l6.45-5.599c3.7-3.22,6.605-7.106,8.633-11.551
			c2.03-4.452,3.06-9.197,3.06-14.1C512,57.191,507.915,47.998,500.794,41.565z M31.254,82.936l-6.431-5.581
			c-1.53-1.333-2.729-2.937-3.565-4.769C20.423,70.758,20,68.807,20,66.789c0-4.009,1.638-7.695,4.612-10.382
			c2.969-2.682,6.796-3.933,10.774-3.53c98.051,9.987,157.315,77.946,185.584,121.348c-3.334,5.861-5.239,12.635-5.239,19.846v19.18
			c0,6.97,3.341,15.619,6.763,23.881c0.248,0.6,0.53,1.28,0.754,1.833v4.722c-13.892-18.688-32.512-39.8-56.097-58.507
			c-37.434-29.692-79.753-47.655-125.882-53.446v-26.846C41.269,96.463,37.62,88.463,31.254,82.936z M41.27,187.299v-35.392
			c86.636,11.859,141.798,69.109,171.313,111.182h-18.615c-24.079-23.74-50.915-42.249-79.764-55.01
			c-5.054-2.235-10.956,0.051-13.19,5.101c-2.233,5.051,0.05,10.956,5.101,13.19c20.584,9.106,40.096,21.419,58.217,36.719h-47.271
			C75.27,263.089,41.27,229.09,41.27,187.299z M64.063,338.602c3.821-15.294,27.124-35.466,64.064-55.514h81.505
			c-36.016,57.814-82.135,95.75-117.897,118.764C83.842,396.268,55.386,373.348,64.063,338.602z M220.723,420.936
			c-1.985,2.78-2.199,2.787-5.773,2.919c-11.847,0.437-20.868,4.593-31.21,24.05c-18.806,11.528-35.905,14.28-50.857,8.177
			c-15.889-6.487-26.928-21.938-31.981-36.352c36.742-23.397,84.377-61.977,122.346-120.772v87.492
			c0,6.825,2.099,13.169,5.685,18.421C225.938,411.965,222.982,417.77,220.723,420.936z M276.27,213.25
			c0,3.574-3.808,12.768-5.24,16.229c-1.61,3.887-2.276,5.495-2.276,7.855V386.45c0,7.031-5.721,12.752-12.752,12.752
			c-7.033,0-12.754-5.721-12.754-12.752V237.334c0-2.359-0.666-3.968-2.276-7.855c-1.433-3.461-5.24-12.654-5.24-16.229v-19.18
			c0-11.176,9.093-20.269,20.269-20.269c11.176,0,20.269,9.093,20.269,20.269V213.25z M379.117,456.082
			c-14.954,6.104-32.053,3.353-50.857-8.177c-10.342-19.457-19.363-23.613-31.21-24.05c-3.574-0.132-3.788-0.14-5.771-2.916
			c-2.261-3.168-5.217-8.974-8.212-16.068c3.586-5.252,5.685-11.596,5.685-18.421v-87.492
			c37.969,58.795,85.604,97.374,122.346,120.772C406.046,434.144,395.006,449.595,379.117,456.082z M447.938,338.601
			c8.734,34.98-19.665,57.67-27.66,63.259c-35.764-23.014-81.892-60.954-117.909-118.772h81.505
			C420.814,303.136,444.116,323.308,447.938,338.601z M470.731,187.299h-0.001c0,41.791-34,75.79-75.791,75.79h-47.271
			c18.121-15.3,37.633-27.613,58.217-36.719c5.051-2.234,7.334-8.14,5.101-13.19c-2.234-5.051-8.14-7.334-13.19-5.101
			c-28.849,12.761-55.684,31.269-79.764,55.01h-18.615c29.518-42.075,84.678-99.329,171.314-111.183V187.299z M490.742,72.588
			c-0.836,1.83-2.035,3.435-3.557,4.759l-6.442,5.591c-6.363,5.526-10.013,13.526-10.013,21.951v26.846
			c-46.122,5.788-88.445,23.752-125.882,53.446c-23.585,18.706-42.205,39.819-56.097,58.507v-4.722
			c0.224-0.553,0.506-1.233,0.754-1.833c3.422-8.262,6.763-16.911,6.763-23.881v-19.18c0-7.211-1.906-13.985-5.239-19.846
			c28.269-43.403,87.532-111.361,185.584-121.348c3.981-0.401,7.805,0.848,10.774,3.53C490.362,59.093,492,62.78,492,66.789
			C492,68.807,491.577,70.758,490.742,72.588z"/>
	</g>
</g>
<g>
	<g>
		<path d="M447.299,202.806c-0.12-0.641-0.32-1.271-0.57-1.87c-0.25-0.61-0.56-1.19-0.92-1.73c-0.359-0.55-0.779-1.06-1.24-1.52
			c-0.46-0.46-0.97-0.88-1.52-1.24c-0.54-0.36-1.12-0.67-1.73-0.92c-0.6-0.25-1.229-0.44-1.869-0.57c-1.29-0.26-2.61-0.26-3.9,0
			c-0.64,0.13-1.27,0.32-1.87,0.57c-0.61,0.25-1.189,0.56-1.729,0.92c-0.551,0.36-1.061,0.78-1.521,1.24
			c-0.46,0.46-0.88,0.97-1.24,1.52c-0.37,0.54-0.67,1.12-0.92,1.73c-0.25,0.6-0.45,1.229-0.58,1.87c-0.13,0.64-0.19,1.3-0.19,1.95
			c0,0.649,0.06,1.31,0.19,1.96c0.129,0.629,0.33,1.259,0.58,1.869c0.25,0.601,0.55,1.181,0.92,1.721c0.36,0.55,0.78,1.06,1.24,1.52
			c0.46,0.46,0.97,0.88,1.521,1.25c0.54,0.36,1.119,0.67,1.729,0.92c0.601,0.25,1.23,0.44,1.87,0.57c0.64,0.13,1.3,0.19,1.95,0.19
			c0.649,0,1.31-0.061,1.95-0.19c0.64-0.13,1.27-0.32,1.869-0.57c0.61-0.25,1.19-0.56,1.73-0.92c0.55-0.37,1.06-0.79,1.52-1.25
			c0.461-0.46,0.881-0.97,1.24-1.52c0.36-0.54,0.67-1.12,0.92-1.721c0.25-0.609,0.45-1.239,0.57-1.869c0.13-0.65,0.2-1.311,0.2-1.96
			C447.499,204.106,447.429,203.445,447.299,202.806z"/>
	</g>
</g>
<g>
	<g>
		<path d="M84.299,202.805c-0.119-0.64-0.32-1.27-0.57-1.87c-0.25-0.61-0.56-1.19-0.92-1.73c-0.359-0.55-0.779-1.06-1.24-1.52
			c-0.46-0.46-0.97-0.88-1.52-1.24c-0.54-0.36-1.12-0.67-1.73-0.92c-0.6-0.25-1.229-0.44-1.869-0.57c-1.29-0.26-2.62-0.26-3.9,0
			c-0.64,0.13-1.27,0.32-1.88,0.57c-0.601,0.25-1.18,0.56-1.72,0.92c-0.551,0.36-1.061,0.78-1.521,1.24
			c-0.46,0.46-0.88,0.97-1.24,1.52c-0.37,0.54-0.67,1.12-0.92,1.73c-0.25,0.6-0.45,1.229-0.58,1.87c-0.13,0.64-0.189,1.3-0.189,1.95
			c0,0.649,0.06,1.31,0.189,1.96c0.13,0.63,0.33,1.26,0.58,1.869c0.25,0.601,0.55,1.181,0.92,1.721c0.36,0.55,0.78,1.06,1.24,1.52
			c0.46,0.46,0.97,0.88,1.521,1.25c0.54,0.36,1.119,0.67,1.72,0.92c0.61,0.25,1.24,0.44,1.88,0.57s1.3,0.19,1.95,0.19
			c0.649,0,1.31-0.061,1.95-0.19c0.64-0.13,1.27-0.32,1.869-0.57c0.61-0.25,1.191-0.56,1.73-0.92c0.55-0.37,1.06-0.79,1.52-1.25
			c0.461-0.46,0.881-0.97,1.24-1.52c0.36-0.54,0.67-1.12,0.92-1.721c0.25-0.609,0.45-1.239,0.57-1.869c0.13-0.65,0.2-1.311,0.2-1.96
			C84.499,204.105,84.429,203.444,84.299,202.805z"/>
	</g>
</g>
<g>
</g>
<g>
</g>
<g>
</g>
<g>
</g>
<g>
</g>
<g>
</g>
<g>
</g>
<g>
</g>
<g>
</g>
<g>
</g>
<g>
</g>
<g>
</g>
<g>
</g>
<g>
</g>
<g>
</g>
</svg>
